<svg width="24" height="24" viewBox="0 0 24 24" fill="none" xmlns="http://www.w3.org/2000/svg">
<g clip-path="url(#clip0_4042_11135)">
<path d="M12 4.5C16.125 4.5 19.5 7.875 19.5 12C19.5 16.125 16.125 19.5 12 19.5C7.875 19.5 4.5 16.125 4.5 12C4.5 7.875 7.875 4.5 12 4.5ZM12 3.25C7.1875 3.25 3.25 7.1875 3.25 12C3.25 16.8125 7.1875 20.75 12 20.75C16.8125 20.75 20.75 16.8125 20.75 12C20.75 7.1875 16.8125 3.25 12 3.25Z" fill="#28232D"/>
<path d="M17 11.375H12.625V7H11.375V11.375H7V12.625H11.375V17H12.625V12.625H17V11.375Z" fill="#28232D"/>
</g>
<defs>
<clipPath id="clip0_4042_11135">
<rect width="20" height="20" fill="white" transform="translate(2 2)"/>
</clipPath>
</defs>
</svg>
