<svg width="116" height="116" viewBox="0 0 116 116" fill="none" xmlns="http://www.w3.org/2000/svg">
<rect y="24.332" width="92.1165" height="91.6688" rx="23" fill="#FFECF3"/>
<path d="M82.0771 13.7411C83.2061 11.6219 86.2434 11.6219 87.3724 13.7411L92.1231 22.658C92.4053 23.1877 92.8399 23.6207 93.3708 23.9007L102.298 28.6109C104.432 29.7366 104.432 32.792 102.298 33.9176L93.3708 38.6278C92.8399 38.9079 92.4053 39.3408 92.1231 39.8706L87.3724 48.7874C86.2434 50.9066 83.2061 50.9066 82.0771 48.7874L77.3264 39.8706C77.0442 39.3408 76.6095 38.9079 76.0787 38.6278L67.1511 33.9176C65.0177 32.792 65.0177 29.7366 67.1511 28.6109L76.0786 23.9007C76.6095 23.6207 77.0442 23.1878 77.3264 22.658L82.0771 13.7411Z" fill="white"/>
<path d="M103.431 3.3131C104.184 1.9003 106.209 1.9003 106.961 3.3131L108.651 6.4842C108.839 6.83736 109.129 7.12597 109.483 7.3127L112.647 8.98238C114.07 9.73279 114.07 11.7698 112.647 12.5202L109.483 14.1899C109.129 14.3766 108.839 14.6652 108.651 15.0184L106.961 18.1895C106.209 19.6023 104.184 19.6023 103.431 18.1895L101.742 15.0184C101.554 14.6652 101.264 14.3766 100.91 14.1899L97.7453 12.5202C96.323 11.7698 96.323 9.73279 97.7453 8.98238L100.91 7.3127C101.264 7.12597 101.554 6.83736 101.742 6.4842L103.431 3.3131Z" fill="white"/>
<path d="M68.2039 11.8421C68.5803 11.1357 69.5927 11.1357 69.969 11.8421L70.8138 13.4276C70.9078 13.6042 71.0527 13.7485 71.2297 13.8419L72.812 14.6767C73.5232 15.0519 73.5232 16.0704 72.812 16.4456L71.2297 17.2805C71.0527 17.3738 70.9078 17.5181 70.8138 17.6947L69.969 19.2803C69.5927 19.9867 68.5803 19.9867 68.2039 19.2803L67.3592 17.6947C67.2651 17.5181 67.1202 17.3738 66.9433 17.2805L65.3609 16.4456C64.6498 16.0704 64.6498 15.0519 65.3609 14.6767L66.9433 13.8419C67.1202 13.7485 67.2651 13.6042 67.3592 13.4276L68.2039 11.8421Z" fill="white"/>
</svg>
