<svg width="20" height="20" viewBox="0 0 20 20" fill="none" xmlns="http://www.w3.org/2000/svg">
<path d="M7.5 2.50049H12.5V0.833496H14.167V2.50049H17.5C17.721 2.50049 17.9336 2.58835 18.0898 2.74463C18.2459 2.90088 18.334 3.11264 18.334 3.3335V16.6665C18.334 16.8875 18.2461 17.1001 18.0898 17.2563C17.9336 17.4126 17.721 17.5005 17.5 17.5005H2.5C2.27918 17.5004 2.06732 17.4125 1.91113 17.2563C1.75485 17.1001 1.66699 16.8875 1.66699 16.6665V3.3335C1.66699 3.11256 1.75495 2.90089 1.91113 2.74463C2.06734 2.58843 2.2791 2.50057 2.5 2.50049H5.83398V0.833496H7.5V2.50049ZM3.33398 15.8335H16.667V9.1665H3.33398V15.8335ZM6.66699 12.5005H5V10.8335H6.66699V12.5005ZM10.834 12.5005H9.16699V10.8335H10.834V12.5005ZM15 12.5005H13.334V10.8335H15V12.5005ZM3.33398 7.50049H16.667V4.1665H14.167V5.8335H12.5V4.1665H7.5V5.8335H5.83398V4.1665H3.33398V7.50049Z" fill="#AEAEAE"/>
<path d="M7.5 2.50049H12.5V0.833496H14.167V2.50049H17.5C17.721 2.50049 17.9336 2.58835 18.0898 2.74463C18.2459 2.90088 18.334 3.11264 18.334 3.3335V16.6665C18.334 16.8875 18.2461 17.1001 18.0898 17.2563C17.9336 17.4126 17.721 17.5005 17.5 17.5005H2.5C2.27918 17.5004 2.06732 17.4125 1.91113 17.2563C1.75485 17.1001 1.66699 16.8875 1.66699 16.6665V3.3335C1.66699 3.11256 1.75495 2.90089 1.91113 2.74463C2.06734 2.58843 2.2791 2.50057 2.5 2.50049H5.83398V0.833496H7.5V2.50049ZM3.33398 15.8335H16.667V9.1665H3.33398V15.8335ZM6.66699 12.5005H5V10.8335H6.66699V12.5005ZM10.834 12.5005H9.16699V10.8335H10.834V12.5005ZM15 12.5005H13.334V10.8335H15V12.5005ZM3.33398 7.50049H16.667V4.1665H14.167V5.8335H12.5V4.1665H7.5V5.8335H5.83398V4.1665H3.33398V7.50049Z" stroke="white"/>
</svg>
