<svg width="24" height="24" viewBox="0 0 24 24" fill="none" xmlns="http://www.w3.org/2000/svg">
<g clip-path="url(#clip0_654_617)">
<path d="M18.6688 7.39375L13.8563 2.58125C13.7188 2.44375 13.5813 2.375 13.375 2.375H6.5C5.74375 2.375 5.125 2.99375 5.125 3.75V20.25C5.125 21.0063 5.74375 21.625 6.5 21.625H17.5C18.2563 21.625 18.875 21.0063 18.875 20.25V7.875C18.875 7.66875 18.8063 7.53125 18.6688 7.39375ZM13.375 4.025L17.225 7.875H13.375V4.025ZM17.5 20.25H6.5V3.75H12V7.875C12 8.63125 12.6188 9.25 13.375 9.25H17.5V20.25Z" fill="#272727"/>
<path d="M16.125 16.125H7.875V17.5H16.125V16.125Z" fill="#272727"/>
<path d="M16.125 12H7.875V13.375H16.125V12Z" fill="#272727"/>
</g>
<defs>
<clipPath id="clip0_654_617">
<rect width="22" height="22" fill="white" transform="translate(1 1)"/>
</clipPath>
</defs>
</svg>
