<svg width="20" height="20" viewBox="0 0 20 20" fill="none" xmlns="http://www.w3.org/2000/svg">
<g clip-path="url(#clip0_7596_5345)">
<path d="M11.25 16.25H16.3574L14.7412 17.8662L15.625 18.75L18.75 15.625L15.625 12.5L14.7412 13.3838L16.3574 15H11.25V16.25Z" fill="#272727"/>
<path d="M9.375 13.125H6.25V14.375H9.375V13.125Z" fill="#272727"/>
<path d="M12.5 10H6.25V11.25H12.5V10Z" fill="#272727"/>
<path d="M15.4375 5.8125L11.0625 1.4375C10.9375 1.3125 10.8125 1.25 10.625 1.25H4.375C3.6875 1.25 3.125 1.81244 3.125 2.5V17.5C3.125 18.1894 3.68594 18.75 4.375 18.75H9.375V17.5H4.375V2.5H9.375V6.25C9.375 6.93756 9.9375 7.5 10.625 7.5H14.375V11.25H15.625V6.25C15.625 6.0625 15.5625 5.9375 15.4375 5.8125ZM10.625 6.25V2.74994L14.125 6.25H10.625Z" fill="#272727"/>
</g>
<defs>
<clipPath id="clip0_7596_5345">
<rect width="20" height="20" fill="white"/>
</clipPath>
</defs>
</svg>
