<svg width="24" height="24" viewBox="0 0 24 24" fill="none" xmlns="http://www.w3.org/2000/svg">
<g clip-path="url(#clip0_654_578)">
<path d="M21.1097 5.64758C20.7265 5.26302 20.2711 4.95789 19.7697 4.74969C19.2683 4.5415 18.7308 4.43433 18.1879 4.43433C17.645 4.43433 17.1074 4.5415 16.606 4.74969C16.1046 4.95789 15.6492 5.26302 15.266 5.64758L16.2422 6.62383C16.4982 6.36787 16.8021 6.16484 17.1365 6.02632C17.4709 5.8878 17.8293 5.8165 18.1913 5.8165C18.5533 5.8165 18.9117 5.8878 19.2461 6.02632C19.5805 6.16484 19.8844 6.36787 20.1404 6.62383C20.3963 6.87978 20.5994 7.18365 20.7379 7.51807C20.8764 7.85249 20.9477 8.21092 20.9477 8.57289C20.9477 8.93487 20.8764 9.2933 20.7379 9.62772C20.5994 9.96214 20.3963 10.266 20.1404 10.522L14.6404 16.022C14.1244 16.5389 13.4241 16.8296 12.6937 16.8303C11.9633 16.8309 11.2626 16.5414 10.7457 16.0254C10.2288 15.5094 9.93798 14.8092 9.93734 14.0788C9.93669 13.3484 10.2262 12.6476 10.7422 12.1307L11.7116 11.1545L10.7422 10.1782L9.76599 11.1545C9.38143 11.5377 9.0763 11.9931 8.8681 12.4945C8.65991 12.9959 8.55273 13.5334 8.55273 14.0763C8.55273 14.6192 8.65991 15.1568 8.8681 15.6582C9.0763 16.1596 9.38143 16.615 9.76599 16.9982C10.5439 17.7661 11.5948 18.1939 12.6879 18.1876C13.2329 18.1898 13.7729 18.084 14.2768 17.8764C14.7806 17.6687 15.2384 17.3632 15.6235 16.9776L21.1235 11.4776C21.8941 10.7023 22.3256 9.65286 22.323 8.55973C22.3204 7.4666 21.884 6.4192 21.1097 5.64758Z" fill="#272727"/>
<path d="M3.88057 18.0639C3.62386 17.8083 3.42015 17.5046 3.28115 17.1701C3.14214 16.8357 3.07059 16.477 3.07059 16.1148C3.07059 15.7526 3.14214 15.394 3.28115 15.0595C3.42015 14.725 3.62386 14.4213 3.88057 14.1657L9.38057 8.66575C9.6361 8.40903 9.93982 8.20532 10.2743 8.06632C10.6088 7.92732 10.9674 7.85576 11.3296 7.85576C11.6918 7.85576 12.0505 7.92732 12.385 8.06632C12.7194 8.20532 13.0232 8.40903 13.2787 8.66575C13.5338 8.92329 13.7346 9.22941 13.8692 9.56597C14.0039 9.90254 14.0696 10.2627 14.0624 10.6251C14.0645 10.9887 13.9945 11.349 13.8565 11.6854C13.7184 12.0217 13.515 12.3273 13.2581 12.5845L11.8006 14.0626L12.7768 15.0389L14.2343 13.5814C15.0102 12.8055 15.446 11.7533 15.446 10.6561C15.446 9.55886 15.0102 8.50659 14.2343 7.73075C13.4585 6.95491 12.4062 6.51904 11.309 6.51904C10.2118 6.51904 9.15954 6.95491 8.3837 7.73075L2.8837 13.2307C2.4981 13.6141 2.1921 14.0699 1.9833 14.5719C1.77449 15.074 1.66699 15.6123 1.66699 16.1561C1.66699 16.6998 1.77449 17.2382 1.9833 17.7402C2.1921 18.2422 2.4981 18.698 2.8837 19.0814C3.66664 19.8435 4.71994 20.2638 5.81245 20.2501C6.91458 20.2512 7.97238 19.8162 8.75495 19.0401L7.7787 18.0639C7.52317 18.3206 7.21945 18.5243 6.88497 18.6633C6.55049 18.8023 6.19185 18.8739 5.82964 18.8739C5.46742 18.8739 5.10878 18.8023 4.7743 18.6633C4.43982 18.5243 4.1361 18.3206 3.88057 18.0639Z" fill="#272727"/>
</g>
<defs>
<clipPath id="clip0_654_578">
<rect width="22" height="22" fill="white" transform="translate(1 1)"/>
</clipPath>
</defs>
</svg>
