<svg width="199" height="42" viewBox="0 0 199 42" fill="none" xmlns="http://www.w3.org/2000/svg">
<path d="M25.3767 36.8059C26.3586 36.0935 25.054 34.0392 26.4089 31.9953C27.7629 29.9513 32 29.2118 32 22.7759C32 16.34 28.189 13.1211 25.3767 11.991C22.5644 10.8599 16.3616 10.3815 11.3384 12.556C6.31517 14.7306 0.0247428 20.9054 2.12186 28.9946C4.21898 37.0828 10.7705 37.5612 14.0901 36.5177C17.4097 35.4743 19.7231 34.5288 21.7941 35.4659C23.37 36.1792 24.4246 37.4959 25.3757 36.8059H25.3767Z" fill="#F78BE4"/>
<path d="M12.9942 25.1948C14.3752 25.1948 15.7506 24.8954 17.043 24.3005C19.4152 23.2077 21.2195 21.2486 22.1231 18.7859C22.1893 18.605 22.097 18.4045 21.9161 18.3383C21.7352 18.2721 21.5347 18.3644 21.4685 18.5453C20.6293 20.8327 18.9546 22.6519 16.7512 23.6665C14.5636 24.6745 12.1168 24.7677 9.86022 23.9294C9.67933 23.8623 9.47884 23.9546 9.41171 24.1346C9.34457 24.3155 9.43688 24.5159 9.61685 24.5831C10.7153 24.9915 11.8566 25.1948 12.9942 25.1948Z" fill="#750060"/>
<path d="M9.83579 25.7623C9.90759 25.7623 9.98032 25.7399 10.0419 25.6942C10.1967 25.5804 10.2302 25.3613 10.1165 25.2065C9.75373 24.7142 9.66049 23.8992 10.0997 23.4703C10.2377 23.336 10.2405 23.115 10.1062 22.977C9.97193 22.839 9.75094 22.8362 9.61293 22.9705C8.8912 23.6745 9.02081 24.8932 9.55512 25.6187C9.62319 25.7119 9.72949 25.7604 9.83672 25.7604L9.83579 25.7623Z" fill="#750060"/>
<path d="M22.5786 19.7317C22.5981 19.7317 22.6177 19.7299 22.6373 19.7271C22.8275 19.6944 22.9553 19.5145 22.9226 19.3243C22.7828 18.5046 22.0396 17.6272 21.0801 17.6393C20.8871 17.6421 20.7332 17.7997 20.736 17.9927C20.7388 18.1857 20.8945 18.3386 21.0894 18.3368C21.6638 18.3293 22.144 18.9018 22.2354 19.4417C22.2643 19.6115 22.4117 19.7317 22.5786 19.7317Z" fill="#750060"/>
<path d="M15.6835 19.317C15.3534 19.317 15.0858 19.0494 15.0858 18.7193C15.0858 18.3892 15.3534 18.1216 15.6835 18.1216C16.0136 18.1216 16.2812 18.3892 16.2812 18.7193C16.2812 19.0494 16.0136 19.317 15.6835 19.317Z" fill="#750060"/>
<path d="M13.6191 20.3566C13.289 20.3566 13.0214 20.089 13.0214 19.7588C13.0214 19.4287 13.289 19.1611 13.6191 19.1611C13.9492 19.1611 14.2168 19.4287 14.2168 19.7588C14.2168 20.089 13.9492 20.3566 13.6191 20.3566Z" fill="#750060"/>
<path d="M9.23484 11.1255C9.52077 11.5837 9.40548 12.2077 8.92099 12.4003C7.78578 12.8513 5.73444 13.4239 3.28776 13.0136C-0.475075 12.3825 0.322863 8.86145 2.31026 9.1893C2.31026 9.1893 -0.418454 7.17451 1.22427 5.5939C2.81712 4.06085 6.65367 6.98717 9.23473 11.1264L9.23484 11.1255Z" fill="#73B242"/>
<path d="M40 11.2988C40 10.9975 40.2477 10.752 40.5518 10.752H47.1558C50.7478 10.752 54.1878 12.4091 54.1878 17.0012C54.1878 18.7699 53.3095 19.9249 52.6283 20.5331C52.3524 20.7786 52.4144 21.2194 52.7353 21.4035C53.7599 21.995 55.3195 23.3731 55.3195 26.1574C55.3195 30.0018 52.1047 32.6242 47.9441 32.6242H40.5518C40.2477 32.6242 40 32.3787 40 32.0774V11.2988ZM47.0264 19.685C49.1376 19.685 50.3368 18.9038 50.3368 16.9956C50.3368 15.0873 48.8843 14.3062 47.0264 14.3062H44.3295C44.0255 14.3062 43.7778 14.5517 43.7778 14.853V19.1326C43.7778 19.4339 44.0255 19.6794 44.3295 19.6794H47.0264V19.685ZM47.7752 23.2504H44.3295C44.0255 23.2504 43.7778 23.4959 43.7778 23.7972V28.5176C43.7778 28.8189 44.0255 29.0644 44.3295 29.0644H47.8146C49.2728 29.0644 51.5586 28.6069 51.3784 25.9677C51.4066 23.5015 49.1264 23.256 47.7695 23.256L47.7752 23.2504Z" fill="#73B242"/>
<path d="M71.8548 24.121C71.8829 24.3107 71.928 24.6288 71.9674 24.9859C72.0012 25.2816 71.7928 25.5494 71.4945 25.5885L61.76 26.9443C61.349 27.0001 61.1351 27.4744 61.3828 27.8036C62.1429 28.8191 63.6574 29.7118 65.5378 29.4496C67.3 29.2041 68.443 28.3448 68.9947 27.8203C69.2199 27.6027 69.5802 27.6139 69.7885 27.8482L71.3143 29.5445C71.5113 29.7621 71.5001 30.0968 71.2918 30.2977C70.5542 31.0007 68.7301 32.4738 66.022 32.8532C61.5236 33.4781 57.5769 30.56 56.9688 26.258C56.3608 21.9561 59.0294 18.1117 63.3083 17.5203C67.5872 16.9289 71.213 19.6071 71.8548 24.121ZM67.2606 23.4347C67.6378 23.3845 67.8518 22.9772 67.6773 22.648C67.1311 21.5934 65.8081 20.6114 63.7869 20.8904C61.7657 21.1694 60.8817 22.4471 60.6453 23.6244C60.5721 23.9927 60.893 24.3219 61.2646 24.2717L67.255 23.4347H67.2606Z" fill="#73B242"/>
<path d="M88.4056 24.121C88.4337 24.3107 88.4788 24.6288 88.5182 24.9859C88.5519 25.2816 88.3436 25.5494 88.0452 25.5885L78.3108 26.9443C77.8998 27.0001 77.6859 27.4744 77.9336 27.8036C78.6937 28.8191 80.2081 29.7118 82.0886 29.4496C83.8508 29.2041 84.9937 28.3448 85.5455 27.8203C85.7707 27.6027 86.131 27.6139 86.3393 27.8482L87.8651 29.5445C88.0621 29.7621 88.0509 30.0968 87.8426 30.2977C87.105 31.0007 85.2809 32.4738 82.5728 32.8532C78.0743 33.4781 74.1276 30.56 73.5196 26.258C72.9115 21.9561 75.5802 18.1117 79.8591 17.5203C84.138 16.9289 87.7637 19.6071 88.4056 24.121ZM83.8114 23.4347C84.1886 23.3845 84.4026 22.9772 84.228 22.648C83.6819 21.5934 82.3588 20.6114 80.3376 20.8904C78.3164 21.1694 77.4325 22.4471 77.196 23.6244C77.1229 23.9927 77.4438 24.3219 77.8154 24.2717L83.8058 23.4347H83.8114Z" fill="#73B242"/>
<path d="M89.8037 17.8103H91.6335C91.9375 17.8103 92.1852 17.5648 92.1852 17.2635V13.9491C92.1852 13.6478 92.433 13.4023 92.737 13.4023H95.4169C95.7209 13.4023 95.9686 13.6478 95.9686 13.9491V17.2635C95.9686 17.5648 96.2164 17.8103 96.5204 17.8103H99.9266C100.231 17.8103 100.478 18.0558 100.478 18.3571V20.6392C100.478 20.9405 100.231 21.186 99.9266 21.186H96.5204C96.2164 21.186 95.9686 21.4315 95.9686 21.7328V27.1562C95.9686 28.9696 96.9145 29.4997 97.9223 29.4997C98.3445 29.4997 98.7387 29.3657 99.0258 29.2374C99.3129 29.1091 99.6226 29.243 99.7464 29.5164L100.681 31.5753C100.805 31.8431 100.692 32.1556 100.422 32.2895C99.8365 32.574 98.7274 32.9981 97.2917 32.9981C94.3922 32.9981 92.1852 30.9057 92.1852 27.7476V21.7328C92.1852 21.4315 91.9375 21.186 91.6335 21.186H89.8037C89.4997 21.186 89.252 20.9405 89.252 20.6392V18.3571C89.252 18.0558 89.4997 17.8103 89.8037 17.8103Z" fill="#73B242"/>
<path d="M104.362 28.6402C107.031 26.8324 109.846 29.6167 108.022 32.267C107.982 32.3284 107.926 32.3842 107.864 32.4232C105.195 34.2311 102.38 31.4468 104.204 28.7965C104.244 28.7351 104.306 28.6793 104.362 28.6402Z" fill="#73B242"/>
<path d="M125.519 10.752H128.199C128.503 10.752 128.751 10.9975 128.751 11.2988V32.0774C128.751 32.3787 128.503 32.6242 128.199 32.6242H125.519C125.215 32.6242 124.968 32.3787 124.968 32.0774V23.7637C124.968 23.4624 124.72 23.2169 124.416 23.2169H116.089C115.785 23.2169 115.537 23.4624 115.537 23.7637V32.0774C115.537 32.3787 115.29 32.6242 114.986 32.6242H112.306C112.002 32.6242 111.754 32.3787 111.754 32.0774V11.2988C111.754 10.9975 112.002 10.752 112.306 10.752H114.986C115.29 10.752 115.537 10.9975 115.537 11.2988V19.1103C115.537 19.4116 115.785 19.6571 116.089 19.6571H124.416C124.72 19.6571 124.968 19.4116 124.968 19.1103V11.2988C124.968 10.9975 125.215 10.752 125.519 10.752Z" fill="#73B242"/>
<path d="M146.115 24.121C146.143 24.3107 146.188 24.6288 146.227 24.9859C146.261 25.2816 146.053 25.5494 145.754 25.5885L136.02 26.9443C135.609 27.0001 135.395 27.4744 135.643 27.8036C136.403 28.8191 137.917 29.7118 139.798 29.4496C141.56 29.2041 142.703 28.3448 143.254 27.8203C143.48 27.6027 143.84 27.6139 144.048 27.8482L145.574 29.5445C145.771 29.7621 145.76 30.0968 145.552 30.2977C144.814 31.0007 142.99 32.4738 140.282 32.8532C135.783 33.4781 131.837 30.56 131.229 26.258C130.621 21.9561 133.289 18.1117 137.568 17.5203C141.847 16.9289 145.473 19.6071 146.115 24.121ZM141.515 23.4347C141.892 23.3845 142.106 22.9772 141.931 22.648C141.385 21.5934 140.062 20.6114 138.041 20.8904C136.02 21.1694 135.136 22.4471 134.899 23.6244C134.826 23.9927 135.147 24.3219 135.519 24.2717L141.509 23.4347H141.515Z" fill="#73B242"/>
<path d="M161.828 22.9657V32.0717C161.828 32.373 161.58 32.6185 161.276 32.6185H158.878C158.574 32.6185 158.326 32.373 158.326 32.0717C158.326 31.6141 157.791 31.3575 157.431 31.6476C156.643 32.2725 155.32 32.9923 153.411 32.9923C150.607 32.9923 148.018 31.1789 148.018 28.0264C148.018 25.1808 150.636 23.1219 153.884 23.1219C156.626 23.1219 158.045 24.182 158.045 24.182V23.3395C158.045 21.4034 156.153 20.7785 154.83 20.7785C153.276 20.7785 151.66 21.3364 150.861 21.6545C150.574 21.7661 150.253 21.6321 150.14 21.3476L149.312 19.2664C149.2 18.9874 149.341 18.6749 149.617 18.5578C150.551 18.1783 152.685 17.4307 155.01 17.4307C159.3 17.4307 161.823 19.5844 161.823 22.9601L161.828 22.9657ZM158.045 27.9651V26.9719C158.045 26.7543 157.915 26.559 157.713 26.4697C157.195 26.2521 156.091 25.8727 154.639 25.8727C153.473 25.8727 151.863 26.3749 151.863 27.9651C151.863 29.5553 153.406 29.8733 154.577 29.8733C156.418 29.8733 157.549 28.7462 157.915 28.3166C158 28.2161 158.045 28.0934 158.045 27.9651Z" fill="#73B242"/>
<path d="M165.792 9H168.472C168.776 9 169.024 9.2455 169.024 9.54681V32.0775C169.024 32.3788 168.776 32.6243 168.472 32.6243H165.792C165.488 32.6243 165.24 32.3788 165.24 32.0775V9.54681C165.24 9.2455 165.488 9 165.792 9Z" fill="#73B242"/>
<path d="M171.788 17.8103H173.618C173.922 17.8103 174.17 17.5648 174.17 17.2635V13.9491C174.17 13.6478 174.417 13.4023 174.721 13.4023H177.401C177.705 13.4023 177.953 13.6478 177.953 13.9491V17.2635C177.953 17.5648 178.201 17.8103 178.505 17.8103H181.911C182.215 17.8103 182.463 18.0558 182.463 18.3571V20.6392C182.463 20.9405 182.215 21.186 181.911 21.186H178.505C178.201 21.186 177.953 21.4315 177.953 21.7328V27.1562C177.953 28.9696 178.899 29.4997 179.907 29.4997C180.329 29.4997 180.723 29.3657 181.01 29.2374C181.297 29.1091 181.607 29.243 181.731 29.5164L182.665 31.5753C182.789 31.8431 182.677 32.1556 182.406 32.2895C181.821 32.574 180.712 32.9981 179.276 32.9981C176.377 32.9981 174.17 30.9057 174.17 27.7476V21.7328C174.17 21.4315 173.922 21.186 173.618 21.186H171.788C171.484 21.186 171.236 20.9405 171.236 20.6392V18.3571C171.236 18.0558 171.484 17.8103 171.788 17.8103Z" fill="#73B242"/>
<path d="M198.667 23.0328V32.0775C198.667 32.3788 198.419 32.6243 198.115 32.6243H195.436C195.132 32.6243 194.884 32.3788 194.884 32.0775V23.9702C194.884 21.8444 193.561 20.9405 191.922 20.9405C190.284 20.9405 189.304 22.3075 189.034 22.7427C188.983 22.8264 188.955 22.9212 188.955 23.0217V32.0775C188.955 32.3788 188.708 32.6243 188.404 32.6243H185.724C185.42 32.6243 185.172 32.3788 185.172 32.0775V9.54681C185.172 9.2455 185.42 9 185.724 9H188.404C188.708 9 188.955 9.2455 188.955 9.54681V18.1953C188.955 18.6584 189.496 18.915 189.856 18.6193C190.543 18.0502 191.641 17.442 193.184 17.442C196.083 17.442 198.667 19.473 198.667 23.0328Z" fill="#73B242"/>
</svg>
