<svg width="24" height="24" viewBox="0 0 24 24" fill="none" xmlns="http://www.w3.org/2000/svg">
<g clip-path="url(#clip0_654_606)">
<path d="M21.625 13.375V12H17.5V18.875H18.875V16.125H20.9375V14.75H18.875V13.375H21.625Z" fill="#272727"/>
<path d="M14.0625 18.875H11.3125V12H14.0625C14.6093 12.0006 15.1336 12.2181 15.5202 12.6048C15.9069 12.9914 16.1244 13.5157 16.125 14.0625V16.8125C16.1244 17.3593 15.9069 17.8836 15.5202 18.2702C15.1336 18.6569 14.6093 18.8744 14.0625 18.875ZM12.6875 17.5H14.0625C14.2448 17.4998 14.4195 17.4273 14.5484 17.2984C14.6773 17.1695 14.7498 16.9948 14.75 16.8125V14.0625C14.7498 13.8802 14.6773 13.7055 14.5484 13.5766C14.4195 13.4477 14.2448 13.3752 14.0625 13.375H12.6875V17.5Z" fill="#272727"/>
<path d="M8.5625 12H5.125V18.875H6.5V16.8125H8.5625C8.92702 16.812 9.27647 16.667 9.53423 16.4092C9.79199 16.1515 9.93701 15.802 9.9375 15.4375V13.375C9.93708 13.0105 9.79208 12.661 9.53431 12.4032C9.27654 12.1454 8.92704 12.0004 8.5625 12ZM6.5 15.4375V13.375H8.5625L8.56319 15.4375H6.5Z" fill="#272727"/>
<path d="M16.125 10.625V7.87499C16.1275 7.78463 16.1103 7.69482 16.0747 7.61173C16.0391 7.52865 15.9859 7.45428 15.9188 7.39374L11.1062 2.58124C11.0457 2.51409 10.9714 2.46088 10.8883 2.42527C10.8052 2.38966 10.7154 2.37251 10.625 2.37499H3.75C3.38566 2.37606 3.03654 2.52127 2.77891 2.7789C2.52128 3.03653 2.37607 3.38565 2.375 3.74999V20.25C2.375 20.6147 2.51987 20.9644 2.77773 21.2223C3.03559 21.4801 3.38533 21.625 3.75 21.625H14.75V20.25H3.75V3.74999H9.25V7.87499C9.25107 8.23934 9.39628 8.58845 9.65391 8.84608C9.91154 9.10371 10.2607 9.24892 10.625 9.24999H14.75V10.625H16.125ZM10.625 7.87499V4.02499L14.475 7.87499H10.625Z" fill="#272727"/>
</g>
<defs>
<clipPath id="clip0_654_606">
<rect width="22" height="22" fill="white" transform="translate(1 1)"/>
</clipPath>
</defs>
</svg>
