<svg width="24" height="24" viewBox="0 0 24 24" fill="none" xmlns="http://www.w3.org/2000/svg">
<g clip-path="url(#clip0_4042_11139)">
<path d="M9.13381 11.375L4.13381 6.375L3.25 7.25881L7.36619 11.375H3.25V12C3.25 14.3206 4.17187 16.5462 5.81282 18.1872C7.45376 19.8281 9.67936 20.75 12 20.75C14.3206 20.75 16.5462 19.8281 18.1872 18.1872C19.8281 16.5462 20.75 14.3206 20.75 12V11.375H9.13381ZM12 19.5C10.1197 19.4976 8.30875 18.7901 6.9249 17.5172C5.54104 16.2442 4.68501 14.4985 4.52594 12.625H19.4741C19.315 14.4985 18.459 16.2442 17.0751 17.5172C15.6913 18.7901 13.8803 19.4976 12 19.5Z" fill="#272727"/>
<path d="M15.75 7C15.4163 7.00051 15.0849 7.0544 14.7682 7.15962C14.3035 6.53067 13.6981 6.01913 13.0004 5.66585C12.3027 5.31258 11.532 5.12736 10.75 5.125C9.63914 5.12176 8.55934 5.49151 7.68362 6.175L4.75881 3.25L3.875 4.13381L7.65625 7.9155L8.09812 7.47331C8.44555 7.12396 8.85883 6.847 9.31403 6.65847C9.76923 6.46995 10.2573 6.37359 10.75 6.375C11.3131 6.37661 11.8687 6.5046 12.3757 6.74952C12.8828 6.99444 13.3284 7.35005 13.6797 7.79012C13.5463 7.90666 13.423 8.03419 13.3109 8.17137C13.1356 8.39135 12.9128 8.56888 12.6592 8.69071C12.4056 8.81255 12.1278 8.87554 11.8465 8.875H9.5V10.125H11.8465C12.3151 10.126 12.7779 10.0211 13.2003 9.81824C13.6227 9.61538 13.9938 9.31976 14.2861 8.95344C14.5288 8.65011 14.8598 8.42967 15.2332 8.3226C15.6067 8.21552 16.0042 8.2271 16.3708 8.35573C16.7374 8.48436 17.055 8.72369 17.2796 9.04064C17.5043 9.35758 17.625 9.7365 17.625 10.125H18.875C18.874 9.2965 18.5445 8.50221 17.9586 7.91637C17.3728 7.33053 16.5785 7.00098 15.75 7Z" fill="#272727"/>
</g>
<defs>
<clipPath id="clip0_4042_11139">
<rect width="20" height="20" fill="white" transform="translate(2 2)"/>
</clipPath>
</defs>
</svg>
